<svg id="click-action" xmlns="http://www.w3.org/2000/svg" width="80" height="80" viewBox="0 0 80 80">
  <defs>
    <style>
      .cls-1 {
        fill: #1f76e7;
      }
    </style>
  </defs>
  <path id="패스_56" data-name="패스 56" class="cls-1" d="M442.86,670.451h-.443a2.149,2.149,0,0,1-1.369-.735,43.7,43.7,0,0,0-3.555-3.423,2.733,2.733,0,0,0-.612-.506,20.407,20.407,0,0,0-1.8-1.461,61.106,61.106,0,0,0-6.45-4.419c-1.434-.956-2.921-1.825-4.439-2.639-1.475-.805-2.953-1.6-4.478-2.312-1.507-.664-2.974-1.417-4.534-1.958a28.423,28.423,0,0,0-4.024-1.406c-.939-.273-1.876-.548-2.821-.8q-.783-.27-1.572-.521a2.867,2.867,0,0,1-.325-.1,2.481,2.481,0,0,1-1.745-2.621,4.134,4.134,0,0,1,.348-1.567,8.426,8.426,0,0,1,3.543-3.781,9.287,9.287,0,0,1,5.132-1.44c.334.1.688.12,1.021.225,1.581.42,3.158.859,4.746,1.253a1.626,1.626,0,0,1,1.348,1.2c.064,1.106-.424,1.644-1.563,1.725-.526-.124-1.051-.257-1.578-.38-.814-.2-1.611-.47-2.432-.644-.465-.143-.943-.236-1.412-.363-1.348-.359-2.483.242-3.627.8a6.38,6.38,0,0,0-2.13,1.78c-.653.883-.544,1.156.508,1.438,1.564.443,3.109.947,4.675,1.381.638.2,1.253.466,1.886.68,1.466.6,2.947,1.159,4.379,1.838,1.413.732,2.9,1.323,4.291,2.09,1.507.936,3.15,1.634,4.617,2.64a67.247,67.247,0,0,1,6.532,4.256A52.34,52.34,0,0,1,442.1,666.7c.638.661.733.675,1.507.213.947-.565,1.932-1.062,2.872-1.639,1.341-.774,2.709-1.5,4.029-2.311,1.64-.834,3.2-1.819,4.806-2.705.664-.36,1.316-.741,1.966-1.127.152-.08.308-.154.456-.244,1.347-.771,2.711-1.514,4.041-2.315.761-.449,1.537-.871,2.315-1.287.5-.269.668-.563.459-1.116a23.832,23.832,0,0,1-1.064-4.429c-.117-.493-.106-1-.237-1.5-.087-.881-.222-1.756-.361-2.629-.121-.524-.2-1.057-.35-1.573a31.17,31.17,0,0,0-2.93-6.625c-.161-.3-.367-.582-.518-.892-.765-1.288-1.5-2.59-2.295-3.863-.85-1.579-1.818-3.089-2.707-4.644-.382-.645-.735-1.307-1.131-1.944-.13-.2-.238-.4-.36-.6a1.958,1.958,0,0,0-1.44-.914c-1.389-.057-1.786.174-2.255,1.315a2.906,2.906,0,0,0,.3,1.915,1.462,1.462,0,0,1-1.652,1.73,2.226,2.226,0,0,1-1.225-1.086c-.1-.186-.216-.36-.331-.536-.429-.717-.8-1.466-1.288-2.15a2.936,2.936,0,0,0-2.111-1.337,4.635,4.635,0,0,0-1.679.146,3.042,3.042,0,0,0-1.856,3.772c.066.211.153.415.237.62a1.476,1.476,0,0,1-.211,1.715,1.386,1.386,0,0,1-1.623.324,2.1,2.1,0,0,1-.783-.8c-.419-.663-.767-1.373-1.249-1.994a3.128,3.128,0,0,0-2.751-1.279,3.09,3.09,0,0,0-2.915,2.7,3.884,3.884,0,0,0,.346,1.931,1.585,1.585,0,0,1,.176,1,1.717,1.717,0,0,1-1,1.072,1.536,1.536,0,0,1-1.719-.683c-.639-.9-1.3-1.783-1.958-2.665-.387-.644-.893-1.206-1.311-1.829-.114-.168-.217-.342-.347-.5-1.643-2.183-3.239-4.4-4.852-6.6-1.692-2.329-3.39-4.654-5.118-6.956a4.128,4.128,0,0,0-.81-.911,2.466,2.466,0,0,0-2.548-.632,2.323,2.323,0,0,0-1.422,1.348,3.362,3.362,0,0,0,.477,2.959c.343.562.661,1.138,1.049,1.672.106.176.223.345.337.517.853,1.428,1.788,2.8,2.669,4.216q2.142,3.39,4.312,6.761c1.4,2.237,2.821,4.456,4.25,6.673.958,1.581,1.985,3.118,2.969,4.681.3.456.6.912.87,1.383.149.237.317.462.471.7a1.515,1.515,0,0,1-.052,1.894,1.615,1.615,0,0,1-.357.283,1.478,1.478,0,0,1-2.06-.647c-.348-.528-.665-1.077-1.024-1.6-1.4-2.289-2.878-4.531-4.315-6.8-.38-.726-.909-1.361-1.3-2.083-.078-.113-.154-.227-.229-.342-.92-1.432-1.828-2.871-2.747-4.3q-2.108-3.338-4.266-6.643c-.861-1.464-1.817-2.866-2.722-4.3a7.291,7.291,0,0,1-1.369-3.6,7.716,7.716,0,0,1,.24-2.248,5.357,5.357,0,0,1,5.355-3.528,5.938,5.938,0,0,1,3.5,1.666,8.9,8.9,0,0,1,.962,1.1c.446.5.787,1.08,1.2,1.6.127.2.294.366.434.556,1.676,2.365,3.428,4.674,5.126,7.023.331.506.728.964,1.066,1.466a6.793,6.793,0,0,0,.6.8c.726,1.053,1.522,2.056,2.254,3.1.258.368.457.523.7,0a5.614,5.614,0,0,1,2.607-2.517,6.055,6.055,0,0,1,5.6.136c.313.167.553.349.851-.1,1.97-2.937,4.169-3.74,7.6-2.82a6.966,6.966,0,0,1,1.636.955c.3.21.48.652.827.69.4.045.506-.465.77-.7a5.189,5.189,0,0,1,5.847-.488c1.386.791,1.973,2.219,2.771,3.479.437.75.85,1.516,1.323,2.245.857,1.582,1.849,3.084,2.726,4.654.8,1.418,1.658,2.806,2.472,4.219a27.325,27.325,0,0,1,2.15,4.552q.387,1.084.693,2.193a46.987,46.987,0,0,1,.772,4.975c.032.292.115.572.145.861a2.761,2.761,0,0,0,.093.465,21.4,21.4,0,0,0,.643,2.8c.17.533.326,1.071.545,1.589.506,1.445.409,1.841-.625,2.585-.309.18-.649.3-.942.515q-2.3,1.311-4.6,2.64c-1.41.731-2.768,1.555-4.138,2.355-2.3,1.211-4.516,2.569-6.785,3.835-1.4.75-2.772,1.561-4.144,2.367a21.566,21.566,0,0,0-2.183,1.214A7.015,7.015,0,0,1,442.86,670.451Z" transform="translate(-387.976 -590.451)"/>
  <g id="그룹_8" data-name="그룹 8">
    <path id="패스_57" data-name="패스 57" class="cls-1" d="M350.814,567.73a20.242,20.242,0,1,1,38.746,7.714,1.477,1.477,0,0,1-2.7-1.2,17.29,17.29,0,1,0-15.392,10.278h.041a1.477,1.477,0,0,1,.071,2.954h-.033A20.266,20.266,0,0,1,350.814,567.73Z" transform="translate(-350.808 -547)"/>
  </g>
  <path id="패스_58" data-name="패스 58" class="cls-1" d="M383.539,595.637a1.478,1.478,0,0,0,.768-2.854l-.02-.005a10.058,10.058,0,1,1,12.544-8.315,1.478,1.478,0,0,0,2.926.413,13,13,0,1,0-16.225,10.759Z" transform="translate(-366.639 -562.83)"/>
</svg>
