<svg id="sangwon-LOGO" xmlns="http://www.w3.org/2000/svg" width="294" height="89" viewBox="0 0 294 89">
  <defs>
    <style>
      .cls-1 {
        fill: #222858;
      }

      .cls-2 {
        fill: #425f99;
      }

      .cls-3 {
        fill: #e7c71f;
      }

      .cls-4 {
        fill: #e5c81f;
      }

      .cls-5 {
        fill: #e6c71f;
      }

      .cls-6 {
        fill: #e6c61f;
      }

      .cls-7 {
        fill: #e6c720;
      }

      .cls-8 {
        fill: #435f99;
      }

      .cls-9 {
        fill: #222959;
      }

      .cls-10 {
        fill: #212449;
      }

      .cls-11 {
        fill: #252a46;
      }

      .cls-12 {
        fill: #fefefe;
      }

      .cls-13 {
        fill: #fdfdfd;
      }

      .cls-14 {
        fill: #fefdfd;
      }

      .cls-15 {
        fill: #fdfdfc;
      }

      .cls-16 {
        fill: #232a59;
      }

      .cls-17 {
        isolation: isolate;
      }

      .cls-18 {
        fill: #707070;
      }
    </style>
  </defs>
  <g id="그룹_1" data-name="그룹 1" transform="translate(-1283.554 -720.181)">
    <path id="패스_1" data-name="패스 1" class="cls-1" d="M1367.394,729.238c-.34-1.313-.064-3.352-1.307-3.734-1.188-.367-1.352,1.818-2.323,2.625-.408.338-.379,1.188-1.126,1.363-.534-2.47-1.26-3.889-3.517-6.775a14.719,14.719,0,0,1-3.44,5.934,21.7,21.7,0,0,1-5.258,4.431c-.662.34-2.387-1.506-3.692-2.237-3.719-2.084-7.546-.949-11.35-.261a4.425,4.425,0,0,1-.9.9c-1.805,1.212-2.009,2.9-1.352,4.775.649,1.857,2.123,2.539,3.994,2.592,1.066.032,2.134.021,3.2.04,3.855.064,4.725.768,5.043,4.539,1.2,14.222-4.06,25.456-15.735,33.8-2.565,1.833-4.716,1.753-7.3.165-13.305-8.175-17.946-19.529-16.692-34.278.294-3.458,1.2-4.138,4.672-4.226a30.807,30.807,0,0,0,4.153-.166,3.95,3.95,0,0,0,3.539-3.906c.209-1.985-1.255-3.032-2.424-4.242-5-1.089-9.928-1.883-14.216,2.073-.911.839-1.757.079-2.451-.64-2.709-2.814-6-5.181-6.883-9.712a16.016,16.016,0,0,0-3.545,7.252c-1.567-1.187-1.839-3.53-3.783-4.306-2.862,6.049.661,12.17-.38,18.12a2.838,2.838,0,0,1-.065.341,2.646,2.646,0,0,1-.037.32c0,.048.005.1.005.144.045.86.177,1.718.193,2.576.012.084.023.167.027.251,1.076,3.977.743,8.176,2.485,12.316,1.831,4.354,4.168,8.452,6.248,12.614,1.934,3.876,6.3,5.993,9.331,9.179,1.31,1.374,3.889,1.721,6.437,1.153,1.667-.372,3.206-2.283,5.224-1.02,1.92,1.2,3.875,2.346,5.839,3.531-4.276,4.694-4.325,7.815-.11,12.033,1.1,1.106,1.423,1.891.706,3.439-1.767,3.814-.128,7.476,3.506,8.543,2.515.739,4.861.536,6.664-1.479,2.026-2.266,1.886-4.965.9-7.608-.435-1.163-.615-1.769.529-2.817,3.725-3.415,3.995-6.476,1.288-10.693-.412-.64-.988-1.13-.521-1.95.791-1.387,5.445-2.894,7.176-2.372,5.1,1.536,9.282-.005,11.347-3.9a3.969,3.969,0,0,1,2.116-1.788,9.476,9.476,0,0,0,4.809-4.785c.735-1.458,1.057-3.266,2.127-4.386,3.491-3.65,4.14-8.57,5.386-12.934,2.022-7.07.228-14.686,1.49-21.994A6.96,6.96,0,0,0,1367.394,729.238Z"/>
    <path id="패스_2" data-name="패스 2" class="cls-2" d="M1335.4,730.618c.085,1.009-.77,1.452-1.274,2.105-.989,1.275-.669,2.538-.085,3.885s1.608,1.542,2.86,1.5c1.173-.035,2.347.023,3.519-.012,4.625-.135,5.285-.246,5.8,5.4,1.416,15.345-4.681,27.222-17.582,35.674a4.038,4.038,0,0,1-4.67.32c-12.35-6.633-19.26-16.618-19.311-30.882-.009-2.642-.193-5.28.567-7.91.538-1.874,1.539-2.656,3.4-2.6,1.492.041,2.986.023,4.479,0s2.946.056,3.758-1.7a3.75,3.75,0,0,0-.668-4.386,5.584,5.584,0,0,1-.626-1.4,5.529,5.529,0,0,0,3.118.384,2.062,2.062,0,0,1,1.069.62c4.087,4.131,7.233,4.226,11.328.348.5-.476.871-1.261,1.8-.913Z"/>
    <path id="패스_3" data-name="패스 3" class="cls-3" d="M1327.3,795.581c3.822-2.424,4.411-4.085,3.036-6.929a1.565,1.565,0,0,0-1.016-.961,62.065,62.065,0,0,1-22.96-14.477,27.682,27.682,0,0,1-8.008-18.3c-.326-5.406-.722-10.928,1.114-16.254,2.116-6.136,6.364-8.742,12.663-7.556a9.225,9.225,0,0,1,2.561,1.175,2.713,2.713,0,0,1,1.437,3.162c-.333,1.515-1.58,1.426-2.794,1.388-3.263-.1-6.54-.458-9.431,1.771-.6.462-1.453.591-1.039,1.443.663,1.364.9,2.375-1.031,2.676-.091.014-.167.128-.25.192,1.914,1.765-1.06,4.182.824,5.982.762.73,1.835,1.56-.329,2.024a.947.947,0,0,0-.212,1.75c1.719,1,2.015,1.992.477,3.35,2.713,1.244.035,5.023,2.959,6.2.455.182,1.245.36.67,1.223-1.262,1.891-1.247,1.89.973,2.662a8.521,8.521,0,0,1,1.1.56c-3.089,3.09,3.8,2.79,1.89,5.481,2.273.486,3.281,2.293,4.544,3.969.467.619,2.688-.367,1.945,1.845-.034.1.338.471.39.445,2.762-1.319,4.1,1.6,6.156,2.293,4.36,1.481,9.145,3.133,10.887,8.331.817,2.438-1.076,6.889-3.476,7.786C1329.156,797.272,1328.778,795.807,1327.3,795.581Z"/>
    <path id="패스_4" data-name="패스 4" class="cls-3" d="M1328.849,781.683c.869-2.831,5.058-1.274,5.465-4.729.078-.658,1.108-.363,1.714-.433.885-.1,2.145-.512,1.78-1.325-1.083-2.41.636-1.887,1.747-1.861,2.828.064-.165-2.8,1.634-3.154,1.385-.275,3.481.161,1.827-2.456-.757-1.2.462-1.252,1.21-1.428,1.708-.4,3.406-.742.916-2.637-.577-.439-.467-.55.7-1.349.876-.6,3-.824.827-2.461a1.105,1.105,0,0,1-.193-.238c2.024-1.64,1.365-4.066,1.86-6.157.077-.323.619-.536.946-.8-2.012-1.883.1-3.994-.375-5.847-.2-.768-.908-1.217-.048-1.976,1.1-.971.535-1.675-.467-2.181-.4-.2-.676-.352-.783-.842-.826-3.762-2.444-4.977-6.573-4.976-1.176,0-2.352,0-3.527.046-1.225.051-2.458.086-2.7-1.5a2.848,2.848,0,0,1,1.346-3.242c4.886-3.113,12.687-1.008,14.463,4.655,3.976,12.674,3.29,24.844-5.193,35.907-3.053,3.984-7.043,6.651-10.931,9.589C1332.144,784.066,1330.522,783.32,1328.849,781.683Z"/>
    <path id="패스_5" data-name="패스 5" class="cls-3" d="M1354.211,746.7a22.63,22.63,0,0,1-.761-3.045c-.187-1.644-.577-3.354,1.167-4.594a51.283,51.283,0,0,0,11.225-11.618C1367.129,737.725,1363.734,743.213,1354.211,746.7Z"/>
    <path id="패스_6" data-name="패스 6" class="cls-3" d="M1285.405,727.689a58.494,58.494,0,0,0,10.946,11.441c1.474,1.127,1.655,5.763.445,6.986a1.428,1.428,0,0,1-1.121.218C1288.479,744.921,1283.208,735.544,1285.405,727.689Z"/>
    <path id="패스_7" data-name="패스 7" class="cls-4" d="M1324.418,787.586c-3.494-.432-2.132,3.511-4.04,4,1.228,3.8,5.049,3.958,7.684,5.79,4.488,3.119,4.685,7.94.435,10.133-2.338,1.206-4.249.585-6.027-1.1-1.952-1.847-1.307-4.092-.905-6.238.213-1.131,1.113-.622,1.732-.3.883.459,1.917,1.115.624,2.064-1.527,1.12-.362,1.97-.142,3.085.3,1.537,1.268.987,2.1,1.2,1.957.5,2.583-.745,3.048-2.177a2.826,2.826,0,0,0-1.739-3.467,43.461,43.461,0,0,1-5.6-3.486,7.362,7.362,0,0,1-2.67-9.428C1320.663,784.3,1322.432,786.43,1324.418,787.586Z"/>
    <path id="패스_8" data-name="패스 8" class="cls-3" d="M1365.145,739.925c3.222,7.626-1.5,11.24-11.169,14.4a18.851,18.851,0,0,0-.013-2.23c-.321-2.643.244-4.507,3.135-5.6C1360.288,745.3,1362.631,742.712,1365.145,739.925Z"/>
    <path id="패스_9" data-name="패스 9" class="cls-3" d="M1285.995,740.056a28.011,28.011,0,0,0,9.861,7.417c.956.463,1.7,5.606,1,6.376-.446.492-1.026.226-1.456.071a26.44,26.44,0,0,1-7.163-3.842C1284.838,747.48,1283.8,744.3,1285.995,740.056Z"/>
    <path id="패스_10" data-name="패스 10" class="cls-3" d="M1365.417,749.367c.27,7.815-4.786,12.979-12.024,12.89-.366-.005-.916-.125-1.061-.375-.507-.873,2.064-6.326,3.077-6.706A27.331,27.331,0,0,0,1365.417,749.367Z"/>
    <path id="패스_11" data-name="패스 11" class="cls-5" d="M1285.93,750.066c3.536,1.948,6.623,4.587,10.644,5.277.658.113,2.039,5.806,1.673,6.433-.243.419-.618.442-1.073.434C1290.126,762.09,1285.539,757.27,1285.93,750.066Z"/>
    <path id="패스_12" data-name="패스 12" class="cls-6" d="M1359.505,725.391c2.565,3.7,2.334,5.966-.852,8.8-1.185,1.054-2.347,2.142-3.591,3.12-.786.617-1.873,2.328-2.644.6-.552-1.235-2.8-3.029-.313-4.535a21.71,21.71,0,0,0,4.465-4A41.374,41.374,0,0,0,1359.505,725.391Z"/>
    <path id="패스_13" data-name="패스 13" class="cls-3" d="M1291.506,724.885c1.879,3.111,3.635,5.942,6.682,7.777,1.805,1.088,1.826,4.2.256,5.516-.871.732-1.624-.042-2.122-.5a46.562,46.562,0,0,1-5.643-5.651C1288.861,729.665,1290.138,727.255,1291.506,724.885Z"/>
    <path id="패스_14" data-name="패스 14" class="cls-3" d="M1362.1,760.535c.3,5.762-4.954,8.176-12.56,8.58.965-3.27,2.052-6.093,6.143-6.262C1358,762.758,1359.965,761.377,1362.1,760.535Z"/>
    <path id="패스_15" data-name="패스 15" class="cls-5" d="M1288.748,760.405c2.6,1.273,4.964,2.409,7.663,2.611,3.563.267,3.582,3.6,5.061,5.758a10.465,10.465,0,0,1-12.6-7.755C1288.827,760.816,1288.784,760.611,1288.748,760.405Z"/>
    <path id="패스_16" data-name="패스 16" class="cls-7" d="M1292.511,768.122c4.654,3.318,11.636.354,13.459,7.247C1298.2,776.458,1295.327,775.057,1292.511,768.122Z"/>
    <path id="패스_17" data-name="패스 17" class="cls-3" d="M1344.806,775.5c1.761-3.13,3.447-5.559,7.549-5.156a8.683,8.683,0,0,0,5.711-1.921C1356.066,774.765,1353.251,776.423,1344.806,775.5Z"/>
    <path id="패스_18" data-name="패스 18" class="cls-3" d="M1311.781,780.019c-5.322,2.478-8.97,1.548-11.181-2.931C1304.679,776.641,1308.946,775.406,1311.781,780.019Z"/>
    <path id="패스_19" data-name="패스 19" class="cls-6" d="M1350.445,777.011a7.288,7.288,0,0,1-9.532,3.9c-.131-.054-.26-.113-.387-.175-.527-.272-1.09-.76-.6-1.067,1.773-1.108,2.561-4.149,5.29-3.259C1346.91,776.965,1348.556,776.692,1350.445,777.011Z"/>
    <path id="패스_20" data-name="패스 20" class="cls-2" d="M1325.929,794.687a3.874,3.874,0,0,1-2.659-3.081,2.912,2.912,0,0,1,2.29-3.425,2.971,2.971,0,0,1,.573-.056,2.855,2.855,0,0,1,2.867,2.85C1329.174,793.135,1327.664,793.887,1325.929,794.687Z"/>
    <path id="패스_21" data-name="패스 21" class="cls-8" d="M1326.259,801.44c.719.449,1.411.973,1.394,1.921-.014.814-.5,1.55-1.332,1.376-.749-.156-1.636-.678-1.371-1.734C1325.116,802.338,1325.313,801.544,1326.259,801.44Z"/>
    <path id="패스_22" data-name="패스 22" class="cls-9" d="M1333.435,760.716a32.183,32.183,0,0,0-15.655-.092c.995,1.468,1.816,3.05,3.8,2.945,2.49-.134,4.014.52,3.553,3.365a4.963,4.963,0,0,1-5.3,3.579c-2.945-.623-4.831-2.829-6.4-5.013-4.575-6.346-7.246-13.4-6.889-21.4.123-2.772.958-4.471,4.161-4.226,2.336.182,4.7.007,7.048.05a2.623,2.623,0,0,1,2.892,3.026c-.064,1.8-1.133,2.581-2.886,2.741-1.539.141-3.7-.852-4.464.67-.869,1.732-.513,3.943.284,5.9.517,1.269.92,2.582,1.557,4.4A60.175,60.175,0,0,0,1323.9,739.9c.409-1.262.271-3.393,1.691-3.434s1.3,2.1,1.731,3.31a76.957,76.957,0,0,0,8.358,16.489c1.9-2.377,2.227-5.163,2.873-7.794.434-1.767-.371-2.908-2.4-2.795-.321.018-.641,0-.962,0-2.224-.024-4.907.433-4.836-2.989.064-3.177,2.61-2.761,4.732-2.771q2.4-.011,4.809,0c3.773.015,5.347,1.442,5.071,5.192a38.275,38.275,0,0,1-8.741,22.439c-2.535,3.013-6.573,3.691-8.988,1.645a3.294,3.294,0,0,1-1.308-3.67,2.583,2.583,0,0,1,2.959-1.907C1331.118,763.853,1331.937,762.138,1333.435,760.716Z"/>
    <path id="패스_23" data-name="패스 23" class="cls-10" d="M1311.837,732.326a1.313,1.313,0,0,1,1.531.891c.116.566-.6.972-1.274,1.025a1.36,1.36,0,0,1-1.552-1.136l-.005-.036C1310.409,732.338,1311.1,732.4,1311.837,732.326Z"/>
    <path id="패스_24" data-name="패스 24" class="cls-11" d="M1339.507,734.248c-.912-.04-1.431-.424-1.463-1.108-.045-.934.758-.772,1.338-.786.513-.012,1.083,0,1.1.73A1.118,1.118,0,0,1,1339.507,734.248Z"/>
    <path id="패스_25" data-name="패스 25" class="cls-12" d="M1337.388,760.726a32.636,32.636,0,0,0-23.222-.1c4.668-7.161,9.046-13.9,11.307-22.118A98.6,98.6,0,0,0,1337.388,760.726Z"/>
    <path id="패스_26" data-name="패스 26" class="cls-13" d="M1339.127,761.114c-2.3-2.076-2.827-4.123-1.154-6.665,1.422-2.161,1.273-4.807,1.6-7.251.136-1.02-.248-2.51-2.217-2.218a10.8,10.8,0,0,1-4.719-.448c-1.2-.364-1.035-1.076-1.076-1.9-.055-1.136.549-1.457,1.57-1.449q4.311.035,8.619,0c1.9-.014,1.91,1.637,1.924,2.657A33.257,33.257,0,0,1,1339.127,761.114Z"/>
    <path id="패스_27" data-name="패스 27" class="cls-14" d="M1311.906,760.984c-3.089-4.926-4.114-10.446-4.614-16.052-.206-2.311.77-4.074,3.742-3.785a63.954,63.954,0,0,0,6.727.038c.907-.009,1.731-.007,1.712,1.242-.015.95.1,1.793-1.235,2.155a12.536,12.536,0,0,1-4.433.419c-1.742-.158-2.14.538-2.135,2.177a16.494,16.494,0,0,0,1.764,7.85C1314.752,757.5,1314.255,759.405,1311.906,760.984Z"/>
    <path id="패스_28" data-name="패스 28" class="cls-15" d="M1321.106,769.269c-2.613.058-7.759-4.173-8.068-6.187-.1-.635.385-1.224.75-1.222,1.09.006,1.988-1.55,3.142-.462,1.8,1.7,3.175,3.934,6.3,3.525,1.109-.144.664,1.359.617,2.077C1323.715,769.006,1321.765,768.634,1321.106,769.269Z"/>
    <path id="패스_29" data-name="패스 29" class="cls-13" d="M1338.316,762.654a18.256,18.256,0,0,1-4.552,5.341,4.2,4.2,0,0,1-4.886.9,2.793,2.793,0,0,1-1.8-2.962c.088-1.894,1.534-1.065,2.372-1.083,1.261-.028,2.425-.227,3.027-1.336C1334.068,760.583,1336.046,760.56,1338.316,762.654Z"/>
    <ellipse id="타원_1" data-name="타원 1" class="cls-16" cx="7.694" cy="7.683" rx="7.694" ry="7.683" transform="translate(1317.95 720.181)"/>
    <ellipse id="타원_2" data-name="타원 2" class="cls-12" cx="6.572" cy="6.563" rx="6.572" ry="6.563" transform="translate(1319.072 721.302)"/>
  </g>
  <g id="상원고등학교" class="cls-17" transform="translate(-1282.1 -722.126)">
    <g id="그룹_2" data-name="그룹 2" class="cls-17" transform="translate(1377.1 737.126)">
      <path id="패스_30" data-name="패스 30" d="M1394.665,755.46a12.144,12.144,0,0,1-7.308-6.122,12.7,12.7,0,0,1-7.775,7.048l-2.482-3.7a10.7,10.7,0,0,0,7.774-10.642v-2.956h4.823v3.346c0,3.952,2.233,7.8,7.451,9.4Zm9.4,8.294c0,3.986-4.32,6.336-11.2,6.336-6.911,0-11.23-2.35-11.23-6.336,0-3.951,4.319-6.3,11.23-6.3C1399.74,757.454,1404.06,759.8,1404.06,763.754Zm-4.716,0c0-1.816-2.268-2.67-6.479-2.67-4.248,0-6.515.854-6.515,2.67,0,1.851,2.267,2.7,6.515,2.7C1397.076,766.459,1399.344,765.605,1399.344,763.754Zm8.748-18.83v3.88H1403.7v7.9h-4.751V737.342h4.751v7.582Z" transform="translate(-1377.1 -737.126)"/>
      <path id="패스_31" data-name="패스 31" d="M1439.34,765.778v3.736h-24.586v-9.751h4.607v-4.378c-2.915.141-5.686.177-8.17.177l-.612-3.736a183.636,183.636,0,0,0,21.093-1l.324,3.346a72.821,72.821,0,0,1-7.918.925v6.192h-4.572v4.485Zm-26.35-21.5c0-3.487,3.42-5.872,8.28-5.872,4.824,0,8.243,2.385,8.243,5.872s-3.419,5.837-8.243,5.837C1416.41,750.119,1412.99,747.769,1412.99,744.281Zm4.5,0c0,1.6,1.548,2.42,3.78,2.42,2.195,0,3.744-.819,3.744-2.42s-1.549-2.455-3.744-2.455C1419.038,741.826,1417.49,742.68,1417.49,744.281Zm16.378,12.064V737.306h4.751v24.841h-4.751v-2.6h-6.227v-3.2Z" transform="translate(-1377.125 -737.126)"/>
      <path id="패스_32" data-name="패스 32" d="M1473.863,762.331v3.764h-29.984v-3.764h10.582v-11.25h4.752v11.25Zm-8.963-3.939a67.359,67.359,0,0,0,1.332-14.515H1446.9v-3.728h24.081v3.124a74.591,74.591,0,0,1-1.332,15.652Z" transform="translate(-1377.149 -737.126)"/>
      <path id="패스_33" data-name="패스 33" d="M1506.982,752.3v3.844H1477V752.3Zm-3.6,11.779c0,3.843-4.356,6.014-11.518,6.014s-11.482-2.171-11.482-6.014c0-3.879,4.318-6.049,11.482-6.049S1503.383,760.2,1503.383,764.076Zm.18-14.057h-22.928V738.206h22.748v3.736H1485.35v4.378h18.213Zm-5,14.057c0-1.709-2.268-2.491-6.7-2.491s-6.695.782-6.695,2.491,2.268,2.455,6.695,2.455S1498.561,765.785,1498.561,764.076Z" transform="translate(-1377.174 -737.126)"/>
      <path id="패스_34" data-name="패스 34" d="M1529.592,743.89h-19.51v-3.7h7.344v-3.062h4.787v3.062h7.379Zm-9.754,13.1c-4.752,0-8.136-2.457-8.136-6.051,0-3.56,3.384-6.017,8.136-6.017,4.787,0,8.135,2.457,8.135,6.017C1527.973,754.534,1524.625,756.99,1519.838,756.99Zm-5.76,2.206h22.1v10.929h-4.752v-7.155h-17.35Zm5.76-5.767c2.123,0,3.6-.819,3.6-2.491,0-1.638-1.477-2.458-3.6-2.458-2.16,0-3.6.82-3.6,2.458C1516.238,752.611,1517.678,753.43,1519.838,753.43Zm20.732-3.809h-4.39v8.222h-4.752V737.3h4.752v8.437h4.39Z" transform="translate(-1377.199 -737.126)"/>
      <path id="패스_35" data-name="패스 35" d="M1573.223,762.331v3.764H1543.2v-3.764h6.3V752h4.68v10.328h3.527V752h4.643v10.328Zm-8.6-4.364a72.747,72.747,0,0,0,1.116-14.09h-19.618v-3.728h24.369v3.16a81.809,81.809,0,0,1-1.116,15.12Z" transform="translate(-1377.223 -737.126)"/>
    </g>
  </g>
  <g id="SANGWON_HIGH_SCHOOL" data-name="SANGWON HIGH SCHOOL" class="cls-17" transform="translate(-1281.865 -722.858)">
    <g id="그룹_3" data-name="그룹 3" class="cls-17" transform="translate(1376.865 784.858)">
      <path id="패스_36" data-name="패스 36" class="cls-18" d="M1376.865,796.875l1.225-1.467a5.09,5.09,0,0,0,3.529,1.6c1.6,0,2.5-.771,2.5-1.909,0-1.229-.9-1.614-2.124-2.165l-1.837-.807a3.87,3.87,0,0,1-2.7-3.54c0-2.129,1.838-3.725,4.357-3.725a5.627,5.627,0,0,1,4.016,1.707l-1.1,1.357a4.182,4.182,0,0,0-2.918-1.211c-1.349,0-2.232.66-2.232,1.743,0,1.155,1.062,1.6,2.143,2.036l1.818.789c1.566.679,2.7,1.67,2.7,3.651,0,2.165-1.764,3.927-4.663,3.927A6.55,6.55,0,0,1,1376.865,796.875Z" transform="translate(-1376.865 -784.858)"/>
      <path id="패스_37" data-name="패스 37" class="cls-18" d="M1393.967,794.768h-4.61l-1.133,3.855H1386.1l4.392-13.513h2.413l4.394,13.513h-2.215Zm-.5-1.671-.522-1.817c-.45-1.468-.846-2.974-1.26-4.5h-.072c-.379,1.543-.793,3.029-1.224,4.5l-.541,1.817Z" transform="translate(-1376.865 -784.858)"/>
      <path id="패스_38" data-name="패스 38" class="cls-18" d="M1398.142,785.11h2.142l4.394,7.932,1.386,2.863h.09c-.108-1.395-.27-3.029-.27-4.5v-6.3h1.98v13.513h-2.142l-4.394-7.968-1.387-2.828h-.089c.108,1.4.27,2.956.27,4.424v6.371h-1.98Z" transform="translate(-1376.865 -784.858)"/>
      <path id="패스_39" data-name="패스 39" class="cls-18" d="M1409.732,791.9c0-4.4,2.665-7.045,6.176-7.045a5.247,5.247,0,0,1,3.944,1.707l-1.135,1.357a3.553,3.553,0,0,0-2.737-1.211c-2.466,0-4.1,1.944-4.1,5.118,0,3.212,1.459,5.174,4.195,5.174a3.245,3.245,0,0,0,2.089-.66V793.17h-2.628v-1.743h4.519v5.853a5.888,5.888,0,0,1-4.2,1.578C1412.308,798.858,1409.732,796.325,1409.732,791.9Z" transform="translate(-1376.866 -784.858)"/>
      <path id="패스_40" data-name="패스 40" class="cls-18" d="M1420.713,785.11h2.16l1.242,7.033.7,4.333h.072c.288-1.451.594-2.9.9-4.333l1.71-7.033h1.837l1.728,7.033c.306,1.413.6,2.863.9,4.333h.091c.214-1.469.449-2.919.666-4.333l1.259-7.033h2l-2.61,13.513H1430.8l-1.781-7.509c-.235-1.065-.433-2.074-.614-3.1h-.089c-.18,1.029-.4,2.038-.612,3.1l-1.747,7.509h-2.52Z" transform="translate(-1376.867 -784.858)"/>
      <path id="패스_41" data-name="패스 41" class="cls-18" d="M1436.427,791.813c0-4.349,2.358-6.955,5.761-6.955s5.781,2.606,5.781,6.955-2.377,7.045-5.781,7.045S1436.427,796.16,1436.427,791.813Zm9.4,0c0-3.175-1.441-5.1-3.638-5.1s-3.619,1.926-3.619,5.1,1.423,5.192,3.619,5.192S1445.826,794.986,1445.826,791.813Z" transform="translate(-1376.868 -784.858)"/>
      <path id="패스_42" data-name="패스 42" class="cls-18" d="M1449.819,785.11h2.143l4.393,7.932,1.387,2.863h.09c-.108-1.395-.27-3.029-.27-4.5v-6.3h1.98v13.513H1457.4l-4.393-7.968-1.387-2.828h-.09c.109,1.4.271,2.956.271,4.424v6.371h-1.981Z" transform="translate(-1376.868 -784.858)"/>
      <path id="패스_43" data-name="패스 43" class="cls-18" d="M1465.281,785.11h2.088v5.508h5.672V785.11h2.088v13.513h-2.088v-6.151h-5.672v6.151h-2.088Z" transform="translate(-1376.869 -784.858)"/>
      <path id="패스_44" data-name="패스 44" class="cls-18" d="M1477.7,785.11h2.088v13.513H1477.7Z" transform="translate(-1376.869 -784.858)"/>
      <path id="패스_45" data-name="패스 45" class="cls-18" d="M1481.643,791.9c0-4.4,2.664-7.045,6.175-7.045a5.248,5.248,0,0,1,3.944,1.707l-1.135,1.357a3.556,3.556,0,0,0-2.736-1.211c-2.467,0-4.106,1.944-4.106,5.118,0,3.212,1.458,5.174,4.195,5.174a3.242,3.242,0,0,0,2.088-.66V793.17h-2.629v-1.743h4.52v5.853a5.89,5.89,0,0,1-4.195,1.578C1484.217,798.858,1481.643,796.325,1481.643,791.9Z" transform="translate(-1376.87 -784.858)"/>
      <path id="패스_46" data-name="패스 46" class="cls-18" d="M1494.08,785.11h2.088v5.508h5.672V785.11h2.09v13.513h-2.09v-6.151h-5.672v6.151h-2.088Z" transform="translate(-1376.87 -784.858)"/>
      <path id="패스_47" data-name="패스 47" class="cls-18" d="M1508.713,796.875l1.225-1.467a5.092,5.092,0,0,0,3.529,1.6c1.6,0,2.5-.771,2.5-1.909,0-1.229-.9-1.614-2.124-2.165l-1.838-.807a3.869,3.869,0,0,1-2.7-3.54c0-2.129,1.837-3.725,4.357-3.725a5.626,5.626,0,0,1,4.015,1.707l-1.1,1.357a4.18,4.18,0,0,0-2.917-1.211c-1.351,0-2.233.66-2.233,1.743,0,1.155,1.062,1.6,2.143,2.036l1.819.789c1.566.679,2.7,1.67,2.7,3.651,0,2.165-1.764,3.927-4.662,3.927A6.551,6.551,0,0,1,1508.713,796.875Z" transform="translate(-1376.871 -784.858)"/>
      <path id="패스_48" data-name="패스 48" class="cls-18" d="M1518.974,791.9c0-4.4,2.629-7.045,5.977-7.045a5.068,5.068,0,0,1,3.764,1.707l-1.135,1.357a3.5,3.5,0,0,0-2.593-1.211c-2.286,0-3.871,1.944-3.871,5.118,0,3.212,1.477,5.174,3.818,5.174a3.835,3.835,0,0,0,2.934-1.432l1.116,1.34a5.194,5.194,0,0,1-4.123,1.945C1521.53,798.858,1518.974,796.325,1518.974,791.9Z" transform="translate(-1376.871 -784.858)"/>
      <path id="패스_49" data-name="패스 49" class="cls-18" d="M1530.422,785.11h2.088v5.508h5.672V785.11h2.089v13.513h-2.089v-6.151h-5.672v6.151h-2.088Z" transform="translate(-1376.872 -784.858)"/>
      <path id="패스_50" data-name="패스 50" class="cls-18" d="M1542.121,791.813c0-4.349,2.359-6.955,5.762-6.955s5.779,2.606,5.779,6.955-2.377,7.045-5.779,7.045S1542.121,796.16,1542.121,791.813Zm9.4,0c0-3.175-1.44-5.1-3.637-5.1s-3.619,1.926-3.619,5.1,1.422,5.192,3.619,5.192S1551.52,794.986,1551.52,791.813Z" transform="translate(-1376.873 -784.858)"/>
      <path id="패스_51" data-name="패스 51" class="cls-18" d="M1554.793,791.813c0-4.349,2.359-6.955,5.762-6.955s5.78,2.606,5.78,6.955-2.377,7.045-5.78,7.045S1554.793,796.16,1554.793,791.813Zm9.4,0c0-3.175-1.44-5.1-3.637-5.1s-3.619,1.926-3.619,5.1,1.422,5.192,3.619,5.192S1564.192,794.986,1564.192,791.813Z" transform="translate(-1376.873 -784.858)"/>
      <path id="패스_52" data-name="패스 52" class="cls-18" d="M1568.186,785.11h2.087v11.714h5.6v1.8h-7.687Z" transform="translate(-1376.873 -784.858)"/>
    </g>
  </g>
</svg>
